<svg xmlns="http://www.w3.org/2000/svg" xmlns:xlink="http://www.w3.org/1999/xlink" width="2000" zoomAndPan="magnify" viewBox="0 0 1500 1499.999933" height="2000" preserveAspectRatio="xMidYMid meet" version="1.0"><rect x="-150" width="1800" fill="#ffffff" y="-149.999993" height="1799.99992" fill-opacity="1"/><rect x="-150" width="1800" fill="#f5f3f2" y="-149.999993" height="1799.99992" fill-opacity="1"/><path fill="#8e2d44" d="M 696.890625 604.617188 L 693.507812 553.554688 C 685.617188 569.882812 673.964844 582.660156 658.5625 591.886719 C 643.15625 600.757812 623.613281 608.34375 599.941406 608.34375 C 579.648438 608.34375 562.363281 602.179688 548.082031 596.144531 C 533.804688 590.113281 522.71875 581.59375 514.828125 570.589844 C 507.3125 559.238281 503.554688 545.925781 503.554688 530.664062 C 503.554688 508.308594 512.382812 490.027344 530.046875 475.832031 C 547.707031 461.28125 573.261719 452.410156 606.703125 449.214844 L 693.507812 440.167969 L 693.507812 418.871094 C 693.507812 403.964844 687.683594 392.074219 676.035156 383.203125 C 664.386719 373.976562 648.605469 369.363281 628.6875 369.363281 C 609.148438 369.363281 592.800781 373.621094 579.648438 382.136719 C 566.871094 390.65625 558.042969 402.902344 553.15625 418.871094 L 514.828125 406.09375 C 522.34375 382.671875 536.058594 364.394531 555.972656 351.261719 C 576.265625 338.132812 600.878906 331.566406 629.8125 331.566406 C 663.257812 331.566406 689.1875 339.726562 707.597656 356.050781 C 726.390625 372.023438 735.78125 393.851562 735.78125 421.53125 L 735.78125 604.617188 Z M 693.507812 474.238281 L 606.140625 483.820312 C 587.351562 485.949219 573.070312 490.917969 563.300781 498.722656 C 553.53125 506.179688 548.644531 516.113281 548.644531 528.535156 C 548.644531 540.957031 553.34375 550.894531 562.738281 558.347656 C 572.507812 565.800781 586.414062 569.527344 604.449219 569.527344 C 625.117188 569.527344 642.027344 565.625 655.179688 557.816406 C 668.332031 550.007812 677.914062 539.539062 683.925781 526.40625 C 690.3125 512.921875 693.507812 498.371094 693.507812 482.753906 Z M 693.507812 474.238281 " fill-opacity="1" fill-rule="nonzero"/><path fill="#1f1d1a" d="M 803.109375 604.617188 L 806.492188 553.554688 C 814.382812 569.882812 826.035156 582.660156 841.4375 591.886719 C 856.84375 600.757812 876.386719 608.34375 900.058594 608.34375 C 920.351562 608.34375 937.636719 602.179688 951.917969 596.144531 C 966.195312 590.113281 977.28125 581.59375 985.171875 570.589844 C 992.6875 559.238281 996.445312 545.925781 996.445312 530.664062 C 996.445312 508.308594 987.617188 490.027344 969.953125 475.832031 C 952.292969 461.28125 926.738281 452.410156 893.296875 449.214844 L 806.492188 440.167969 L 806.492188 418.871094 C 806.492188 403.964844 812.316406 392.074219 823.964844 383.203125 C 835.613281 373.976562 851.394531 369.363281 871.3125 369.363281 C 890.851562 369.363281 907.199219 373.621094 920.351562 382.136719 C 933.128906 390.65625 941.957031 402.902344 946.84375 418.871094 L 985.171875 406.09375 C 977.65625 382.671875 963.941406 364.394531 944.027344 351.261719 C 923.734375 338.132812 899.121094 331.566406 870.1875 331.566406 C 836.742188 331.566406 810.8125 339.726562 792.402344 356.050781 C 773.609375 372.023438 764.21875 393.851562 764.21875 421.53125 L 764.21875 604.617188 Z M 806.492188 474.238281 L 893.859375 483.820312 C 912.648438 485.949219 926.929688 490.917969 936.699219 498.722656 C 946.46875 506.179688 951.355469 516.113281 951.355469 528.535156 C 951.355469 540.957031 946.65625 550.894531 937.261719 558.347656 C 927.492188 565.800781 913.585938 569.527344 895.550781 569.527344 C 874.882812 569.527344 857.972656 565.625 844.820312 557.816406 C 831.667969 550.007812 822.085938 539.539062 816.074219 526.40625 C 809.6875 512.921875 806.492188 498.371094 806.492188 482.753906 Z M 806.492188 474.238281 " fill-opacity="1" fill-rule="nonzero"/><path fill="#1f1d1a" d="M 696.890625 632.0625 L 693.507812 679.976562 C 685.617188 663.648438 673.964844 650.875 658.5625 641.648438 C 643.15625 632.773438 623.613281 631.53125 599.941406 631.53125 C 579.648438 631.53125 562.363281 631.355469 548.082031 637.386719 C 533.804688 643.421875 522.71875 651.9375 514.828125 662.941406 C 507.3125 674.296875 503.554688 687.605469 503.554688 702.867188 C 503.554688 725.226562 512.382812 743.503906 530.046875 757.699219 C 547.707031 772.25 573.261719 781.125 606.703125 784.320312 L 693.507812 793.367188 L 693.507812 814.660156 C 693.507812 829.566406 687.683594 841.457031 676.035156 850.328125 C 664.386719 859.558594 648.605469 864.171875 628.6875 864.171875 C 609.148438 864.171875 592.800781 859.910156 579.648438 851.394531 C 566.871094 842.875 558.042969 830.632812 553.15625 814.660156 L 514.828125 827.4375 C 522.34375 850.863281 536.058594 869.140625 555.972656 882.269531 C 576.265625 895.402344 600.878906 901.96875 629.8125 901.96875 C 663.257812 901.96875 689.1875 893.804688 707.597656 877.480469 C 726.390625 861.511719 735.78125 839.683594 735.78125 812 L 735.78125 632.0625 Z M 693.507812 759.296875 L 606.140625 749.714844 C 587.351562 747.585938 573.070312 742.617188 563.300781 734.808594 C 553.53125 727.355469 548.644531 717.417969 548.644531 704.996094 C 548.644531 692.574219 553.34375 682.636719 562.738281 675.183594 C 572.507812 667.730469 586.414062 664.007812 604.449219 664.007812 C 625.117188 664.007812 642.027344 667.910156 655.179688 675.71875 C 668.332031 683.527344 677.914062 693.996094 683.925781 707.128906 C 690.3125 720.613281 693.507812 735.164062 693.507812 750.777344 Z M 693.507812 759.296875 " fill-opacity="1" fill-rule="nonzero"/><path fill="#1f1d1a" d="M 803.109375 632.0625 L 806.492188 679.976562 C 814.382812 663.648438 826.035156 650.875 841.4375 641.648438 C 856.84375 632.773438 876.386719 631.53125 900.058594 631.53125 C 920.351562 631.53125 937.636719 631.355469 951.917969 637.386719 C 966.195312 643.421875 977.28125 651.9375 985.171875 662.941406 C 992.6875 674.296875 996.445312 687.605469 996.445312 702.867188 C 996.445312 725.226562 987.617188 743.503906 969.953125 757.699219 C 952.292969 772.25 926.738281 781.125 893.296875 784.320312 L 806.492188 793.367188 L 806.492188 814.660156 C 806.492188 829.566406 812.316406 841.457031 823.964844 850.328125 C 835.613281 859.558594 851.394531 864.171875 871.3125 864.171875 C 890.851562 864.171875 907.199219 859.910156 920.351562 851.394531 C 933.128906 842.875 941.957031 830.632812 946.84375 814.660156 L 985.171875 827.4375 C 977.65625 850.863281 963.941406 869.140625 944.027344 882.269531 C 923.734375 895.402344 899.121094 901.96875 870.1875 901.96875 C 836.742188 901.96875 810.8125 893.804688 792.402344 877.480469 C 773.609375 861.511719 764.21875 839.683594 764.21875 812 L 764.21875 632.0625 Z M 806.492188 759.296875 L 893.859375 749.714844 C 912.648438 747.585938 926.929688 742.617188 936.699219 734.808594 C 946.46875 727.355469 951.355469 717.417969 951.355469 704.996094 C 951.355469 692.574219 946.65625 682.636719 937.261719 675.183594 C 927.492188 667.730469 913.585938 664.007812 895.550781 664.007812 C 874.882812 664.007812 857.972656 667.910156 844.820312 675.71875 C 831.667969 683.527344 822.085938 693.996094 816.074219 707.128906 C 809.6875 720.613281 806.492188 735.164062 806.492188 750.777344 Z M 806.492188 759.296875 " fill-opacity="1" fill-rule="nonzero"/><path fill="#1f1d1a" d="M 648.980469 975.035156 C 648.980469 979.175781 650.28125 982.554688 652.960938 985.054688 C 655.613281 987.527344 658.960938 988.746094 662.933594 988.746094 C 666.75 988.746094 670.015625 987.519531 672.65625 985.054688 C 675.335938 982.554688 676.640625 979.175781 676.640625 975.035156 C 676.640625 970.757812 675.351562 967.355469 672.644531 965.003906 C 670.003906 962.542969 666.746094 961.324219 662.933594 961.324219 C 658.972656 961.324219 655.625 962.535156 652.976562 965.003906 C 650.269531 967.355469 648.980469 970.757812 648.980469 975.035156 Z M 526.632812 1011.714844 L 526.632812 1023.15625 L 551.175781 1023.15625 L 551.175781 1113.679688 C 551.175781 1124.757812 553.144531 1133.691406 557.171875 1140.40625 L 557.183594 1140.421875 L 557.191406 1140.433594 C 561.378906 1146.910156 566.828125 1151.601562 573.523438 1154.472656 L 573.546875 1154.480469 C 580.179688 1157.132812 587.371094 1158.457031 595.105469 1158.457031 C 598.121094 1158.457031 600.957031 1158.269531 603.613281 1157.890625 C 606.253906 1157.511719 608.714844 1156.945312 611 1156.1875 C 613.257812 1155.621094 615.253906 1154.957031 616.980469 1154.1875 L 617.558594 1153.929688 L 617.558594 1141.378906 L 616.300781 1141.757812 C 614.453125 1142.3125 611.855469 1143.054688 608.511719 1143.984375 L 608.496094 1143.988281 C 605.449219 1144.882812 601.824219 1145.34375 597.617188 1145.34375 C 592.9375 1145.34375 588.730469 1144.355469 584.984375 1142.398438 C 581.476562 1140.285156 578.632812 1137.015625 576.472656 1132.527344 C 574.503906 1127.859375 573.492188 1121.6875 573.492188 1113.960938 L 573.492188 1023.15625 L 613.65625 1023.15625 L 613.65625 1010.601562 L 573.492188 1010.601562 L 573.492188 974.054688 L 555.394531 974.054688 L 554.449219 999.421875 C 553.9375 1002.148438 552.917969 1004.285156 551.4375 1005.894531 L 551.433594 1005.898438 C 549.558594 1007.945312 546.777344 1009.449219 543.003906 1010.347656 L 542.988281 1010.351562 C 539.375 1011.253906 534.902344 1011.714844 529.5625 1011.714844 Z M 1006.988281 1144.785156 L 1006.988281 1155.667969 L 1071.421875 1155.667969 L 1071.421875 1144.785156 L 1069.886719 1144.785156 C 1067.492188 1144.785156 1064.816406 1144.691406 1061.859375 1144.503906 C 1058.929688 1144.324219 1056.378906 1144.050781 1054.199219 1143.6875 C 1053.222656 1143.421875 1052.558594 1143.171875 1052.15625 1142.949219 C 1052.03125 1142.882812 1051.949219 1142.828125 1051.898438 1142.785156 L 1051.898438 1048.394531 C 1054.664062 1044.207031 1057.464844 1040.523438 1060.296875 1037.335938 C 1064.882812 1032.195312 1069.632812 1028.273438 1074.539062 1025.546875 C 1079.601562 1022.835938 1085.015625 1021.484375 1090.804688 1021.484375 C 1096.636719 1021.484375 1101.054688 1022.667969 1104.179688 1024.921875 L 1104.195312 1024.933594 L 1104.207031 1024.945312 C 1107.3125 1027.015625 1109.621094 1030.417969 1111.066406 1035.289062 C 1112.515625 1040.1875 1113.257812 1046.59375 1113.257812 1054.539062 L 1113.257812 1142.761719 L 1113.242188 1142.769531 L 1113.21875 1142.785156 C 1113.203125 1142.796875 1113.183594 1142.808594 1113.164062 1142.824219 C 1113.148438 1142.832031 1113.132812 1142.839844 1113.113281 1142.851562 L 1113.085938 1142.867188 L 1113.0625 1142.878906 C 1113.03125 1142.898438 1112.996094 1142.914062 1112.960938 1142.933594 C 1112.5 1143.164062 1111.757812 1143.417969 1110.679688 1143.6875 C 1108.691406 1144.050781 1106.230469 1144.324219 1103.296875 1144.503906 C 1100.339844 1144.691406 1097.570312 1144.785156 1094.988281 1144.785156 L 1093.453125 1144.785156 L 1093.453125 1155.667969 L 1155.097656 1155.667969 L 1155.097656 1144.785156 L 1153.839844 1144.785156 C 1151.070312 1144.785156 1148.210938 1144.691406 1145.253906 1144.503906 C 1142.328125 1144.324219 1139.789062 1143.957031 1137.632812 1143.421875 C 1136.648438 1143.152344 1135.996094 1142.882812 1135.609375 1142.632812 C 1135.394531 1142.5 1135.320312 1142.410156 1135.292969 1142.371094 L 1135.292969 1052.308594 C 1135.292969 1051.148438 1135.273438 1050.015625 1135.226562 1048.902344 C 1138.015625 1044.707031 1140.839844 1040.945312 1143.699219 1037.605469 C 1148.28125 1032.472656 1153.121094 1028.554688 1158.207031 1025.832031 L 1158.230469 1025.816406 C 1163.289062 1022.925781 1168.703125 1021.484375 1174.480469 1021.484375 C 1180.3125 1021.484375 1184.730469 1022.667969 1187.855469 1024.921875 L 1187.867188 1024.933594 L 1187.882812 1024.945312 C 1190.988281 1027.015625 1193.296875 1030.417969 1194.738281 1035.289062 C 1196.191406 1040.1875 1196.929688 1046.59375 1196.929688 1054.539062 L 1196.929688 1142.761719 C 1196.871094 1142.804688 1196.777344 1142.863281 1196.632812 1142.933594 C 1196.179688 1143.164062 1195.433594 1143.417969 1194.355469 1143.6875 C 1192.367188 1144.050781 1189.90625 1144.324219 1186.96875 1144.503906 C 1184.011719 1144.691406 1181.335938 1144.785156 1178.941406 1144.785156 L 1177.40625 1144.785156 L 1177.40625 1155.667969 L 1242.117188 1155.667969 L 1242.117188 1144.785156 L 1240.304688 1144.785156 C 1234.042969 1144.785156 1228.839844 1144.230469 1224.671875 1143.144531 C 1222.667969 1142.53125 1221.257812 1141.644531 1220.351562 1140.535156 C 1219.445312 1139.4375 1218.96875 1138.039062 1218.96875 1136.273438 L 1218.96875 1052.308594 C 1218.96875 1042.171875 1217.28125 1033.824219 1213.84375 1027.316406 C 1210.597656 1020.644531 1205.90625 1015.742188 1199.757812 1012.664062 C 1193.824219 1009.414062 1186.78125 1007.808594 1178.664062 1007.808594 C 1171.101562 1007.808594 1164.261719 1009.230469 1158.167969 1012.085938 L 1158.15625 1012.09375 C 1152.273438 1014.9375 1146.792969 1019.011719 1141.699219 1024.289062 L 1141.6875 1024.304688 C 1138.800781 1027.414062 1135.945312 1030.917969 1133.132812 1034.804688 C 1132.355469 1032.085938 1131.371094 1029.589844 1130.167969 1027.316406 C 1126.925781 1020.644531 1122.230469 1015.742188 1116.082031 1012.664062 C 1110.148438 1009.414062 1103.105469 1007.808594 1094.988281 1007.808594 C 1087.425781 1007.808594 1080.589844 1009.230469 1074.492188 1012.085938 L 1074.480469 1012.09375 C 1068.597656 1014.9375 1063.203125 1019.011719 1058.296875 1024.296875 C 1055.601562 1027.097656 1052.910156 1030.261719 1050.222656 1033.796875 L 1050.222656 1010.601562 L 1006.988281 1010.601562 L 1006.988281 1021.332031 L 1011.152344 1022.027344 C 1015.589844 1022.765625 1019.160156 1023.59375 1021.882812 1024.5 L 1021.902344 1024.503906 C 1024.816406 1025.417969 1026.777344 1026.476562 1027.914062 1027.613281 C 1028.96875 1028.667969 1029.582031 1030.328125 1029.582031 1032.777344 L 1029.582031 1136.273438 C 1029.582031 1138.039062 1029.105469 1139.4375 1028.199219 1140.535156 C 1027.289062 1141.644531 1025.878906 1142.535156 1023.875 1143.148438 C 1019.898438 1144.230469 1014.792969 1144.785156 1008.523438 1144.785156 Z M 885.054688 1110.890625 L 885.054688 1010.601562 L 787.550781 1010.601562 L 787.550781 1021.761719 L 789.082031 1021.761719 C 792.582031 1021.761719 795.984375 1021.945312 799.296875 1022.3125 C 802.601562 1022.679688 805.316406 1023.230469 807.460938 1023.941406 C 808.527344 1024.296875 809.234375 1024.667969 809.65625 1025.023438 C 809.972656 1025.285156 810.089844 1025.5 810.125 1025.667969 L 769.605469 1134.96875 L 727.960938 1023.378906 C 728.007812 1023.355469 728.070312 1023.328125 728.144531 1023.300781 C 728.613281 1023.121094 729.40625 1022.964844 730.589844 1022.875 L 730.660156 1022.867188 C 733.035156 1022.5 735.972656 1022.222656 739.488281 1022.039062 C 743.191406 1021.851562 746.800781 1021.761719 750.316406 1021.761719 L 751.851562 1021.761719 L 751.851562 1010.601562 L 688.8125 1010.601562 L 688.8125 1021.761719 L 690.628906 1021.761719 C 693.734375 1021.761719 696.445312 1022.035156 698.773438 1022.574219 L 698.808594 1022.582031 L 698.847656 1022.585938 C 701.125 1022.9375 702.890625 1023.714844 704.207031 1024.867188 L 704.230469 1024.882812 L 704.25 1024.902344 C 705.757812 1026.074219 706.964844 1027.773438 707.84375 1030.0625 L 756.058594 1155.667969 L 774.699219 1155.667969 L 821.511719 1032.027344 L 821.511719 1032.015625 C 822.589844 1029.328125 823.910156 1027.335938 825.4375 1025.976562 L 825.441406 1025.972656 C 827.175781 1024.410156 829.167969 1023.371094 831.421875 1022.851562 L 831.445312 1022.847656 L 831.46875 1022.839844 C 833.984375 1022.121094 836.589844 1021.761719 839.289062 1021.761719 L 840.78125 1021.761719 L 842.953125 1022.035156 L 842.96875 1022.035156 C 849.824219 1022.777344 854.8125 1023.878906 858.019531 1025.304688 L 858.046875 1025.316406 L 858.078125 1025.328125 C 859.691406 1025.921875 860.835938 1026.785156 861.582031 1027.886719 C 862.328125 1028.992188 862.738281 1030.417969 862.738281 1032.21875 L 862.738281 1112.84375 C 862.738281 1122.992188 864.523438 1131.53125 868.148438 1138.40625 C 871.769531 1145.269531 876.839844 1150.351562 883.359375 1153.609375 L 883.367188 1153.617188 C 890.035156 1156.851562 897.808594 1158.457031 906.667969 1158.457031 C 914.59375 1158.457031 921.707031 1157.039062 927.984375 1154.183594 C 934.417969 1151.34375 940.371094 1147.28125 945.835938 1142 L 945.847656 1141.988281 C 948.886719 1138.949219 951.863281 1135.5625 954.777344 1131.832031 L 954.777344 1155.667969 L 998.851562 1155.667969 L 998.851562 1144.785156 L 997.035156 1144.785156 C 992.800781 1144.785156 989.042969 1144.507812 985.761719 1143.957031 C 982.523438 1143.417969 979.976562 1142.53125 978.082031 1141.335938 C 976.484375 1140.042969 975.703125 1138.382812 975.703125 1136.273438 L 975.703125 1010.601562 L 927.445312 1010.601562 L 927.445312 1021.699219 L 932.53125 1022.039062 L 932.539062 1022.039062 C 939.757812 1022.59375 945.019531 1023.605469 948.40625 1025.03125 L 948.421875 1025.039062 C 950.140625 1025.726562 951.363281 1026.667969 952.160156 1027.824219 C 952.960938 1028.980469 953.382812 1030.425781 953.382812 1032.21875 L 953.382812 1117.164062 C 950.292969 1121.515625 947.128906 1125.425781 943.890625 1128.90625 C 938.9375 1134.042969 933.726562 1137.96875 928.265625 1140.703125 C 922.828125 1143.421875 916.933594 1144.785156 910.574219 1144.785156 C 904.367188 1144.785156 899.449219 1143.59375 895.746094 1141.300781 C 892.0625 1139.019531 889.308594 1135.496094 887.511719 1130.65625 C 885.882812 1125.582031 885.054688 1119.003906 885.054688 1110.890625 Z M 727.820312 1023.460938 L 727.816406 1023.46875 L 727.808594 1023.472656 L 727.804688 1023.476562 L 727.804688 1023.480469 L 727.816406 1023.46875 Z M 675.753906 1136.273438 L 675.753906 1010.601562 L 630.847656 1010.601562 L 630.847656 1021.332031 L 635.011719 1022.027344 C 641.683594 1023.136719 646.503906 1024.425781 649.535156 1025.851562 L 649.558594 1025.863281 L 649.582031 1025.871094 C 650.992188 1026.453125 652.003906 1027.300781 652.675781 1028.40625 C 653.347656 1029.515625 653.71875 1030.957031 653.71875 1032.777344 L 653.71875 1136.273438 C 653.71875 1138.039062 653.238281 1139.4375 652.335938 1140.535156 C 651.425781 1141.644531 650.019531 1142.53125 648.015625 1143.144531 C 643.847656 1144.230469 638.644531 1144.785156 632.382812 1144.785156 L 630.847656 1144.785156 L 630.847656 1155.667969 L 698.347656 1155.667969 L 698.347656 1144.785156 L 697.089844 1144.785156 C 690.644531 1144.785156 685.351562 1144.230469 681.1875 1143.144531 C 679.285156 1142.539062 677.945312 1141.65625 677.078125 1140.554688 C 676.214844 1139.453125 675.753906 1138.050781 675.753906 1136.273438 Z M 488.070312 1141.542969 L 488.0625 1141.550781 C 482.285156 1144.617188 475.199219 1146.175781 466.765625 1146.175781 C 458.898438 1146.175781 451.890625 1144.714844 445.71875 1141.816406 C 439.722656 1138.722656 434.628906 1134.449219 430.445312 1128.988281 C 426.25 1123.515625 422.953125 1116.929688 420.566406 1109.21875 C 418.363281 1101.324219 417.257812 1092.585938 417.257812 1082.992188 C 417.257812 1070.636719 419.195312 1059.792969 423.039062 1050.453125 C 427.066406 1040.933594 432.902344 1033.558594 440.542969 1028.285156 C 448.15625 1023.027344 457.621094 1020.367188 468.996094 1020.367188 C 478.726562 1020.367188 487.027344 1022.203125 493.921875 1025.835938 C 495.527344 1026.675781 497.027344 1027.566406 498.421875 1028.492188 L 498.421875 1045.273438 L 520.734375 1045.273438 L 520.734375 1025.398438 L 520.449219 1025.113281 C 518.125 1022.789062 514.597656 1020.320312 509.917969 1017.699219 C 505.179688 1015.046875 499.34375 1012.789062 492.414062 1010.917969 C 485.613281 1008.839844 477.804688 1007.808594 468.996094 1007.808594 C 453.976562 1007.808594 440.785156 1011.097656 429.460938 1017.703125 C 418.152344 1024.113281 409.375 1032.984375 403.152344 1044.300781 C 396.921875 1055.4375 393.824219 1068.347656 393.824219 1082.992188 C 393.824219 1098.003906 396.828125 1111.1875 402.867188 1122.507812 L 402.871094 1122.519531 C 409.089844 1133.828125 417.675781 1142.699219 428.617188 1149.113281 L 428.625 1149.121094 C 439.574219 1155.351562 452.015625 1158.457031 465.925781 1158.457031 C 475.691406 1158.457031 484.195312 1156.953125 491.40625 1153.917969 C 498.765625 1150.898438 505.101562 1146.738281 510.402344 1141.4375 C 515.863281 1136.164062 520.382812 1130.226562 523.964844 1123.628906 L 524.34375 1122.929688 L 514.179688 1114.402344 L 513.605469 1115.4375 C 510.855469 1120.386719 507.363281 1125.257812 503.125 1130.050781 C 499.125 1134.597656 494.113281 1138.433594 488.070312 1141.542969 Z M 325.449219 1084.230469 C 331.289062 1083.007812 337.683594 1081.933594 344.632812 1081.007812 L 344.632812 1118.871094 C 342.761719 1122.332031 340.683594 1125.617188 338.40625 1128.722656 L 338.402344 1128.730469 C 334.578125 1134.011719 329.941406 1138.191406 324.488281 1141.285156 L 324.476562 1141.289062 C 319.25 1144.355469 313.199219 1145.898438 306.285156 1145.898438 C 301.023438 1145.898438 296.441406 1144.902344 292.511719 1142.941406 C 288.589844 1140.796875 285.671875 1137.871094 283.722656 1134.15625 C 281.761719 1130.230469 280.761719 1125.550781 280.761719 1120.09375 C 280.761719 1115.382812 281.578125 1111.152344 283.1875 1107.386719 C 284.976562 1103.636719 287.664062 1100.3125 291.273438 1097.425781 L 291.285156 1097.417969 L 291.296875 1097.40625 C 294.90625 1094.339844 299.535156 1091.789062 305.214844 1089.773438 L 305.226562 1089.769531 L 305.242188 1089.761719 C 310.9375 1087.558594 317.664062 1085.710938 325.429688 1084.230469 Z M 311.648438 1075.066406 C 299.882812 1077.679688 290.035156 1081.050781 282.128906 1085.191406 C 274.21875 1089.148438 268.136719 1093.980469 263.9375 1099.710938 L 263.921875 1099.726562 C 259.886719 1105.496094 257.886719 1112.394531 257.886719 1120.375 C 257.886719 1127.984375 259.792969 1134.773438 263.625 1140.710938 L 263.632812 1140.726562 L 263.644531 1140.742188 C 267.652344 1146.472656 273 1150.859375 279.65625 1153.902344 C 286.3125 1156.945312 293.796875 1158.457031 302.097656 1158.457031 C 310.035156 1158.457031 317.242188 1156.945312 323.707031 1153.902344 C 330.339844 1150.867188 336.027344 1146.601562 340.765625 1141.105469 C 342.769531 1138.867188 344.617188 1136.476562 346.304688 1133.925781 L 346.304688 1155.667969 L 389.261719 1155.667969 L 389.261719 1144.785156 L 388.003906 1144.785156 C 383.769531 1144.785156 380.011719 1144.507812 376.730469 1143.957031 C 373.476562 1143.417969 371.042969 1142.53125 369.347656 1141.351562 C 367.738281 1140.054688 366.949219 1138.390625 366.949219 1136.273438 L 366.949219 1052.027344 C 366.949219 1043.933594 365.632812 1037.085938 362.949219 1031.523438 C 360.28125 1025.808594 356.550781 1021.210938 351.761719 1017.757812 C 347.007812 1014.335938 341.597656 1011.871094 335.539062 1010.351562 C 329.5 1008.65625 323 1007.808594 316.042969 1007.808594 C 308.15625 1007.808594 300.90625 1008.75 294.300781 1010.636719 L 294.292969 1010.640625 C 287.925781 1012.511719 282.378906 1014.671875 277.660156 1017.125 L 277.644531 1017.132812 C 273.148438 1019.570312 269.550781 1021.933594 266.875 1024.226562 L 266.535156 1024.519531 L 266.535156 1045.539062 L 288.292969 1045.539062 L 288.292969 1027.589844 C 289.214844 1026.972656 290.167969 1026.382812 291.152344 1025.816406 L 291.160156 1025.8125 C 297.289062 1022.207031 305.191406 1020.367188 314.929688 1020.367188 C 321.519531 1020.367188 326.9375 1021.464844 331.226562 1023.613281 L 331.25 1023.621094 L 331.269531 1023.632812 C 335.675781 1025.570312 338.949219 1028.914062 341.089844 1033.734375 L 341.097656 1033.753906 L 341.109375 1033.773438 C 343.429688 1038.414062 344.632812 1045.027344 344.632812 1053.699219 L 344.632812 1069.324219 C 332.417969 1070.976562 321.425781 1072.890625 311.648438 1075.066406 Z M 311.648438 1075.066406 " fill-opacity="1" fill-rule="evenodd"/></svg>